<svg width="24" height="24" viewBox="0 0 24 24" fill="none" xmlns="http://www.w3.org/2000/svg">
<path fill-rule="evenodd" clip-rule="evenodd" d="M18.3639 5.63615C18.5835 5.85569 18.6886 6.16474 18.6484 6.4726L17.7999 12.978C17.7285 13.5256 17.2266 13.9117 16.679 13.8402C16.1313 13.7688 15.7453 13.267 15.8167 12.7193L16.285 9.12935L7.05023 18.3641C6.65971 18.7546 6.02654 18.7546 5.63602 18.3641C5.24549 17.9736 5.24549 17.3404 5.63602 16.9499L14.8707 7.71513L11.2808 8.18339C10.7331 8.25482 10.2313 7.86877 10.1598 7.32113C10.0884 6.77348 10.4745 6.27162 11.0221 6.20019L17.5275 5.35166C17.8354 5.31151 18.1444 5.41662 18.3639 5.63615Z" fill="black"/>
</svg>
