<?xml version="1.0" encoding="UTF-8" standalone="no"?>
<svg
   width="24"
   height="24"
   viewBox="0 0 24 24"
   fill="none"
   version="1.1"
   id="svg4"
   sodipodi:docname="Line.svg"
   inkscape:version="1.1 (c68e22c387, 2021-05-23)"
   xmlns:inkscape="http://www.inkscape.org/namespaces/inkscape"
   xmlns:sodipodi="http://sodipodi.sourceforge.net/DTD/sodipodi-0.dtd"
   xmlns="http://www.w3.org/2000/svg"
   xmlns:svg="http://www.w3.org/2000/svg">
  <defs
     id="defs8" />
  <sodipodi:namedview
     id="namedview6"
     pagecolor="#505050"
     bordercolor="#ffffff"
     borderopacity="1"
     inkscape:pageshadow="0"
     inkscape:pageopacity="0"
     inkscape:pagecheckerboard="1"
     showgrid="false"
     inkscape:object-paths="true"
     inkscape:snap-intersection-paths="true"
     inkscape:snap-smooth-nodes="true"
     inkscape:zoom="22.627417"
     inkscape:cx="10.805475"
     inkscape:cy="19.224466"
     inkscape:window-width="2004"
     inkscape:window-height="1406"
     inkscape:window-x="-11"
     inkscape:window-y="-11"
     inkscape:window-maximized="1"
     inkscape:current-layer="svg4" />
  <path
     id="path2-2"
     style="fill:#000000;fill-opacity:1"
     d="M 17.652344 5.34375 C 17.397718 5.3447328 17.143491 5.4424566 16.949219 5.6367188 L 14.871094 7.7148438 L 7.7148438 14.871094 L 5.6367188 16.949219 C 5.4424517 17.143471 5.3447428 17.397728 5.34375 17.652344 C 5.3437348 17.656241 5.3437199 17.660165 5.34375 17.664062 C 5.344204 17.722863 5.350566 17.781844 5.3613281 17.839844 C 5.3620623 17.843801 5.3624991 17.847613 5.3632812 17.851562 C 5.373887 17.905113 5.3887771 17.958198 5.4082031 18.009766 C 5.4171379 18.033427 5.4267831 18.057134 5.4375 18.080078 C 5.438728 18.082707 5.4401551 18.085272 5.4414062 18.087891 C 5.4571047 18.120751 5.4748576 18.152507 5.4941406 18.183594 C 5.5141937 18.215922 5.534782 18.247281 5.5585938 18.277344 C 5.5824055 18.307406 5.6092688 18.335839 5.6367188 18.363281 C 5.6628568 18.389418 5.6905834 18.414862 5.71875 18.4375 C 5.7250171 18.44252 5.731908 18.446315 5.7382812 18.451172 C 5.7638027 18.470623 5.7893129 18.489054 5.8164062 18.505859 C 5.8474883 18.525138 5.879253 18.542897 5.9121094 18.558594 C 5.9147281 18.559845 5.917293 18.561272 5.9199219 18.5625 C 5.9428636 18.573216 5.9665755 18.582862 5.9902344 18.591797 C 6.0418018 18.611221 6.0948872 18.626114 6.1484375 18.636719 C 6.1498374 18.636996 6.1509429 18.638401 6.1523438 18.638672 C 6.1548901 18.639168 6.1576054 18.638195 6.1601562 18.638672 C 6.2181556 18.649433 6.2771375 18.655796 6.3359375 18.65625 C 6.3398258 18.656279 6.3437641 18.656267 6.3476562 18.65625 C 6.6022692 18.655257 6.8565192 18.557533 7.0507812 18.363281 L 9.1289062 16.285156 L 16.285156 9.1289062 L 18.363281 7.0507812 C 18.557558 6.8565191 18.655267 6.6022849 18.65625 6.3476562 C 18.656256 6.3463589 18.656249 6.3450469 18.65625 6.34375 C 18.65625 6.3411604 18.65627 6.3385271 18.65625 6.3359375 C 18.655796 6.277137 18.649434 6.218156 18.638672 6.1601562 C 18.638196 6.1576054 18.639168 6.1548902 18.638672 6.1523438 C 18.638401 6.1509429 18.636996 6.1498374 18.636719 6.1484375 C 18.626113 6.0948868 18.611223 6.0418017 18.591797 5.9902344 C 18.582862 5.9665731 18.573217 5.9428664 18.5625 5.9199219 C 18.561878 5.9185914 18.561175 5.9173439 18.560547 5.9160156 C 18.559926 5.9147007 18.559221 5.9134218 18.558594 5.9121094 C 18.542895 5.8792489 18.525142 5.847493 18.505859 5.8164062 C 18.493253 5.7960832 18.478944 5.7772662 18.464844 5.7578125 C 18.453905 5.7427507 18.443524 5.7274592 18.431641 5.7128906 C 18.410284 5.6867068 18.387689 5.661125 18.363281 5.6367188 C 18.338874 5.6123125 18.313294 5.5897148 18.287109 5.5683594 C 18.27254 5.5564773 18.25725 5.5460939 18.242188 5.5351562 C 18.222737 5.5210591 18.203914 5.5067444 18.183594 5.4941406 C 18.152512 5.4748615 18.120747 5.4571027 18.087891 5.4414062 C 18.086565 5.4407716 18.085313 5.4400816 18.083984 5.4394531 C 18.082675 5.4388348 18.08139 5.4381126 18.080078 5.4375 C 18.057136 5.4267843 18.033425 5.4171376 18.009766 5.4082031 C 17.958198 5.3887786 17.905113 5.3738862 17.851562 5.3632812 C 17.85019 5.3630079 17.84903 5.3615958 17.847656 5.3613281 C 17.845105 5.3608342 17.842398 5.3618021 17.839844 5.3613281 C 17.781844 5.3505668 17.722862 5.3442039 17.664062 5.34375 C 17.660174 5.3437214 17.656236 5.3437331 17.652344 5.34375 z " />
</svg>
