<svg width="24" height="24" viewBox="0 0 24 24" fill="none" xmlns="http://www.w3.org/2000/svg">
<g clip-path="url(#clip0_507_2911)">
<path fill-rule="evenodd" clip-rule="evenodd" d="M11.6431 2.8858C13.2052 1.3237 15.7379 1.3237 17.3 2.8858L21.1825 6.76831C22.7446 8.3304 22.7446 10.8631 21.1825 12.4252L13.6357 19.9719L16.0966 19.9719C16.6489 19.9719 17.0966 20.4197 17.0966 20.9719C17.0966 21.5242 16.6489 21.9719 16.0966 21.9719L9.21408 21.9719C8.15322 21.9719 7.1358 21.5505 6.38566 20.8004L2.88554 17.3002C1.32344 15.7381 1.32344 13.2055 2.88554 11.6434L11.6431 2.8858ZM10.8073 19.9719L14.6824 16.0968L7.97144 9.38592L4.29975 13.0576C3.5187 13.8387 3.5187 15.105 4.29975 15.886L7.79987 19.3861C8.17494 19.7612 8.68365 19.9719 9.21408 19.9719L10.8073 19.9719ZM9.38566 7.9717L16.0966 14.6826L19.7683 11.0109C20.5493 10.2299 20.5493 8.96357 19.7683 8.18252L15.8858 4.30001C15.1047 3.51896 13.8384 3.51896 13.0573 4.30001L9.38566 7.9717Z" fill="black"/>
</g>
<defs>
<clipPath id="clip0_507_2911">
<rect width="24" height="24" fill="white"/>
</clipPath>
</defs>
</svg>
