<svg width="24" height="24" viewBox="0 0 24 24" fill="none" xmlns="http://www.w3.org/2000/svg">
<path fill-rule="evenodd" clip-rule="evenodd" d="M13.9037 2.67929C13.999 2.7606 14.0884 2.89035 14.0884 3.14799V10.7188C14.0884 11.2711 14.5361 11.7188 15.0884 11.7188C15.6407 11.7188 16.0884 11.2711 16.0884 10.7188V4.57651C16.1751 4.52893 16.3557 4.48078 16.5881 4.5044C16.8186 4.52783 17.0047 4.61242 17.1172 4.71468C17.2081 4.79726 17.2901 4.92216 17.2901 5.16666V11.6654C17.2901 12.2177 17.7378 12.6654 18.2901 12.6654C18.8424 12.6654 19.2901 12.2177 19.2901 11.6654V7.5C19.2901 7.45692 19.294 7.4278 19.2983 7.40919C19.3037 7.40903 19.3103 7.40911 19.3179 7.4096C19.4137 7.41569 19.7281 7.51755 19.8754 8.05653C20.0285 8.61639 20.1408 9.54772 20.2161 10.5663C20.2898 11.5623 20.3232 12.5657 20.3382 13.229C20.3483 13.6751 20.3113 14.1255 20.2343 14.5796L20.0294 15.7875C19.4698 19.0862 16.6121 21.5 13.2663 21.5C10.6391 21.5 8.24275 19.9995 7.09538 17.6362L6.96703 17.3718L4.66438 11.4777C4.74235 11.4303 4.83989 11.3762 4.96101 11.3167C4.97737 11.3087 4.98685 11.3048 5.0231 11.3122C5.07598 11.323 5.16055 11.357 5.26989 11.431C5.37568 11.5026 5.47148 11.5891 5.54339 11.6625C5.57805 11.6978 5.60405 11.7269 5.61964 11.7449C5.62567 11.7519 5.63 11.757 5.63254 11.7601L7.80709 14.5904C8.06802 14.9301 8.51627 15.0658 8.92179 14.928C9.32732 14.7902 9.60007 14.4095 9.60007 13.9812V4.51586C9.60007 4.3049 9.67053 4.21483 9.7303 4.16353C9.81099 4.09429 9.95372 4.03425 10.1371 4.03425C10.3201 4.03425 10.4718 4.09427 10.5638 4.1713C10.6337 4.22983 10.7055 4.32502 10.7162 4.52132L10.7167 4.53538V10.2456C10.7167 10.7979 11.1644 11.2456 11.7167 11.2456C12.269 11.2456 12.7167 10.7979 12.7167 10.2456V4.51586C12.7167 4.5063 12.7166 4.49675 12.7163 4.48719C12.7158 4.46899 12.7151 4.45087 12.7143 4.43283L12.6602 3.04961C12.6639 2.83679 12.7404 2.7311 12.8266 2.66096C12.939 2.56959 13.1295 2.49728 13.3622 2.50007C13.5941 2.50286 13.7864 2.57928 13.9037 2.67929ZM10.8295 2.12126C10.5998 2.06241 10.3658 2.03425 10.1372 2.03425C9.54849 2.03424 8.92268 2.22114 8.42785 2.64576C7.9121 3.08834 7.60007 3.73907 7.60007 4.51586V11.0382L7.20617 10.5256L6.4184 11.1416C7.20614 10.5256 7.20638 10.5258 7.20617 10.5256L7.20429 10.5232L7.20207 10.5204L7.19652 10.5134L7.18106 10.4944C7.16885 10.4795 7.15276 10.4602 7.13304 10.4374C7.09374 10.3919 7.03917 10.3312 6.97111 10.2619C6.83761 10.1258 6.63945 9.94297 6.39107 9.77482C5.92705 9.46069 5.0444 9.04743 4.07912 9.52165C3.52148 9.79561 3.15275 10.07 2.91025 10.3357C2.78745 10.4702 2.69592 10.6038 2.63056 10.7338C2.59799 10.7985 2.57255 10.8612 2.55315 10.921C2.54348 10.9508 2.53539 10.9797 2.5287 11.0075C2.52535 11.0214 2.52237 11.035 2.51971 11.0483L2.51596 11.068L2.51427 11.0776L2.51347 11.0824L2.51308 11.0848C2.51289 11.0859 2.5127 11.0871 3.50007 11.2456L2.5127 11.0871C2.48446 11.2631 2.50377 11.4434 2.56862 11.6095L5.11862 18.1366C5.12827 18.1613 5.1389 18.1856 5.15048 18.2095L5.2962 18.5096C6.7781 21.5621 9.87318 23.5 13.2663 23.5C17.5876 23.5 21.2785 20.3824 22.0012 16.122L22.2061 14.9141C22.3019 14.3492 22.351 13.771 22.3377 13.1838C22.3223 12.5036 22.2878 11.4625 22.2106 10.4188C22.1351 9.39769 22.0137 8.29407 21.8047 7.52927C21.462 6.27535 20.5014 5.48076 19.4447 5.41362C19.3934 5.41036 19.3418 5.4089 19.2901 5.40927V5.16666C19.2901 4.36063 18.9718 3.69764 18.4624 3.23462C17.9746 2.79128 17.3603 2.57258 16.7903 2.51465C16.5404 2.48925 16.2799 2.49285 16.0224 2.53033C15.8987 1.97184 15.6074 1.5039 15.2018 1.15779C14.6762 0.709386 14.0115 0.507729 13.3862 0.500219C12.7619 0.492719 12.0953 0.677894 11.5649 1.10921C11.2398 1.37356 10.9848 1.71626 10.8295 2.12126ZM19.3083 7.38129C19.3082 7.38111 19.3069 7.38286 19.3051 7.38707C19.3076 7.38357 19.3085 7.38146 19.3083 7.38129Z" fill="black"/>
</svg>
