<svg width="24" height="24" viewBox="0 0 24 24" fill="none" xmlns="http://www.w3.org/2000/svg">
<g clip-path="url(#clip0_507_2888)">
<path fill-rule="evenodd" clip-rule="evenodd" d="M15.4498 2.18635C15.8403 2.57688 15.8403 3.21004 15.4498 3.60057L5.54121 13.5091L4.54451 18.6172L5.38291 19.4556L10.491 18.4589L20.3995 8.55032C20.7901 8.15979 21.4232 8.15979 21.8137 8.55032C22.2043 8.94084 22.2043 9.574 21.8137 9.96453L11.6893 20.089C11.5485 20.2297 11.369 20.3253 11.1737 20.3634L3.26692 21.9062C2.94039 21.9699 2.60355 21.867 2.36831 21.6318C2.13306 21.3965 2.03021 21.0597 2.09392 20.7332L3.6367 12.8264C3.67482 12.6311 3.77035 12.4516 3.91109 12.3108L14.0356 2.18635C14.4261 1.79583 15.0593 1.79583 15.4498 2.18635Z" fill="black"/>
<path fill-rule="evenodd" clip-rule="evenodd" d="M6.79377 12.0615C7.59877 12.1765 8.25399 12.7674 8.45122 13.5563L8.84972 15.1503L10.4437 15.5488C11.2326 15.7461 11.8236 16.4013 11.9386 17.2063L12.197 19.0155C12.2751 19.5623 11.8952 20.0688 11.3485 20.1469C10.8018 20.225 10.2952 19.8451 10.2171 19.2984L9.95867 17.4891L8.36465 17.0906C7.64808 16.9115 7.08858 16.352 6.90944 15.6354L6.51093 14.0414L4.7017 13.7829C4.15496 13.7048 3.77506 13.1983 3.85317 12.6516C3.93127 12.1048 4.43781 11.7249 4.98454 11.803L6.79377 12.0615Z" fill="black"/>
<path fill-rule="evenodd" clip-rule="evenodd" d="M18.7784 5.2928C19.1689 5.68332 19.1689 6.31649 18.7784 6.70701L11.7073 13.7781C11.3168 14.1686 10.6836 14.1686 10.2931 13.7781C9.90259 13.3876 9.90259 12.7544 10.2931 12.3639L17.3642 5.2928C17.7547 4.90228 18.3879 4.90228 18.7784 5.2928Z" fill="black"/>
</g>
<defs>
<clipPath id="clip0_507_2888">
<rect width="24" height="24" fill="white"/>
</clipPath>
</defs>
</svg>
