<svg width="24" height="24" viewBox="0 0 24 24" fill="none" xmlns="http://www.w3.org/2000/svg">
<path fill-rule="evenodd" clip-rule="evenodd" d="M18.9999 2C19.5521 1.99999 19.9999 2.44769 19.9999 2.99998L20 7.99997C20 8.2652 19.8947 8.51956 19.7071 8.7071C19.5196 8.89464 19.2652 9 19 9L14 9C13.4477 9 13 8.55228 13 8C13 7.44772 13.4477 7 14 7H16.899C15.6356 5.76172 13.907 5 12 5C8.13401 5 5 8.13401 5 12C5 15.866 8.13401 19 12 19C14.9361 19 17.4524 17.192 18.4915 14.6248C18.6988 14.1129 19.2818 13.8658 19.7937 14.0731C20.3056 14.2803 20.5526 14.8633 20.3454 15.3752C19.011 18.6717 15.7786 21 12 21C7.02944 21 3 16.9706 3 12C3 7.02944 7.02944 3 12 3C14.3053 3 16.4084 3.86747 17.9999 5.29172L17.9999 3.00002C17.9999 2.44774 18.4476 2.00001 18.9999 2Z" fill="black"/>
</svg>
