<svg width="24" height="24" viewBox="0 0 24 24" fill="none" xmlns="http://www.w3.org/2000/svg">
<path fill-rule="evenodd" clip-rule="evenodd" d="M4.4186 2C3.86632 1.99999 3.41859 2.44769 3.41858 2.99998L3.41846 7.99997C3.41845 8.2652 3.5238 8.51956 3.71134 8.7071C3.89888 8.89464 4.15324 9 4.41846 9L9.41846 9C9.97074 9 10.4185 8.55228 10.4185 8C10.4185 7.44772 9.97074 7 9.41846 7H6.51941C7.78285 5.76172 9.51145 5 11.4185 5C15.2845 5 18.4185 8.13401 18.4185 12C18.4185 15.866 15.2845 19 11.4185 19C8.48233 19 5.96609 17.192 4.92691 14.6248C4.71969 14.1129 4.13669 13.8658 3.62476 14.0731C3.11283 14.2803 2.86581 14.8633 3.07304 15.3752C4.40741 18.6717 7.63983 21 11.4185 21C16.389 21 20.4185 16.9706 20.4185 12C20.4185 7.02944 16.389 3 11.4185 3C9.11319 3 7.01008 3.86747 5.41852 5.29172L5.41858 3.00002C5.41859 2.44774 4.97089 2.00001 4.4186 2Z" fill="black"/>
</svg>
